<mxfile host="app.diagrams.net" modified="2024-02-19T07:46:16.848Z" agent="Mozilla/5.0 (X11; Linux x86_64) AppleWebKit/537.36 (KHTML, like Gecko) Chrome/121.0.0.0 Safari/537.36" etag="DAb6T5e9oYZprundiqbJ" version="23.1.5" type="device">
  <diagram name="Page-1" id="vj-aX3OEKdZCapaSHSW7">
    <mxGraphModel dx="2497" dy="900" grid="1" gridSize="10" guides="1" tooltips="1" connect="1" arrows="1" fold="1" page="1" pageScale="1" pageWidth="850" pageHeight="1100" math="0" shadow="0">
      <root>
        <mxCell id="0" />
        <mxCell id="1" parent="0" />
        <mxCell id="piupa0PpMjbpXbgxNqik-1" value="" style="rounded=0;whiteSpace=wrap;html=1;" parent="1" vertex="1">
          <mxGeometry x="-840" y="320" width="120" height="60" as="geometry" />
        </mxCell>
        <mxCell id="piupa0PpMjbpXbgxNqik-2" value="" style="aspect=fixed;sketch=0;html=1;dashed=0;whitespace=wrap;fillColor=#2875E2;strokeColor=#ffffff;points=[[0.005,0.63,0],[0.1,0.2,0],[0.9,0.2,0],[0.5,0,0],[0.995,0.63,0],[0.72,0.99,0],[0.5,1,0],[0.28,0.99,0]];shape=mxgraph.kubernetes.icon2;kubernetesLabel=1;prIcon=user" parent="1" vertex="1">
          <mxGeometry x="-810" y="326" width="50" height="48" as="geometry" />
        </mxCell>
        <mxCell id="piupa0PpMjbpXbgxNqik-3" value="" style="rounded=0;whiteSpace=wrap;html=1;" parent="1" vertex="1">
          <mxGeometry x="-840" y="480" width="120" height="90" as="geometry" />
        </mxCell>
        <mxCell id="piupa0PpMjbpXbgxNqik-7" value="API GATEWAY" style="sketch=0;points=[[0,0,0],[0.25,0,0],[0.5,0,0],[0.75,0,0],[1,0,0],[0,1,0],[0.25,1,0],[0.5,1,0],[0.75,1,0],[1,1,0],[0,0.25,0],[0,0.5,0],[0,0.75,0],[1,0.25,0],[1,0.5,0],[1,0.75,0]];outlineConnect=0;fontColor=#232F3E;fillColor=#E7157B;strokeColor=#ffffff;dashed=0;verticalLabelPosition=bottom;verticalAlign=top;align=center;html=1;fontSize=12;fontStyle=0;aspect=fixed;shape=mxgraph.aws4.resourceIcon;resIcon=mxgraph.aws4.api_gateway;" parent="1" vertex="1">
          <mxGeometry x="-480" y="320" width="85" height="85" as="geometry" />
        </mxCell>
        <mxCell id="piupa0PpMjbpXbgxNqik-23" value="" style="sketch=0;outlineConnect=0;fontColor=#232F3E;gradientColor=none;fillColor=#ED7100;strokeColor=none;dashed=0;verticalLabelPosition=bottom;verticalAlign=top;align=center;html=1;fontSize=12;fontStyle=0;aspect=fixed;pointerEvents=1;shape=mxgraph.aws4.lambda_function;" parent="1" vertex="1">
          <mxGeometry x="-250" y="160" width="48" height="48" as="geometry" />
        </mxCell>
        <mxCell id="piupa0PpMjbpXbgxNqik-66" value="" style="endArrow=classic;html=1;rounded=0;entryX=0.5;entryY=0;entryDx=0;entryDy=0;" parent="1" target="piupa0PpMjbpXbgxNqik-3" edge="1" source="piupa0PpMjbpXbgxNqik-4">
          <mxGeometry width="50" height="50" relative="1" as="geometry">
            <mxPoint x="-780" y="370" as="sourcePoint" />
            <mxPoint x="-730" y="320" as="targetPoint" />
          </mxGeometry>
        </mxCell>
        <mxCell id="3ecNAM6_Q_U1S4VKsc-8-4" value="&lt;font style=&quot;font-size: 32px;&quot;&gt;&lt;b&gt;Login Flow&lt;/b&gt;&lt;/font&gt;" style="text;html=1;align=center;verticalAlign=middle;resizable=0;points=[];autosize=1;strokeColor=none;fillColor=none;" parent="1" vertex="1">
          <mxGeometry x="-225" y="70" width="190" height="50" as="geometry" />
        </mxCell>
        <mxCell id="36JCrnNfCk2gwNVFmTdE-1" value="DB" style="sketch=0;points=[[0,0,0],[0.25,0,0],[0.5,0,0],[0.75,0,0],[1,0,0],[0,1,0],[0.25,1,0],[0.5,1,0],[0.75,1,0],[1,1,0],[0,0.25,0],[0,0.5,0],[0,0.75,0],[1,0.25,0],[1,0.5,0],[1,0.75,0]];outlineConnect=0;fontColor=#232F3E;fillColor=#C925D1;strokeColor=#ffffff;dashed=0;verticalLabelPosition=bottom;verticalAlign=top;align=center;html=1;fontSize=12;fontStyle=0;aspect=fixed;shape=mxgraph.aws4.resourceIcon;resIcon=mxgraph.aws4.dynamodb;noLabel=0;" parent="1" vertex="1">
          <mxGeometry x="-80" y="322.5" width="80" height="80" as="geometry" />
        </mxCell>
        <mxCell id="iSwbIM2tqrzNAByZ9JPQ-2" value="" style="sketch=0;outlineConnect=0;fontColor=#232F3E;gradientColor=none;fillColor=#ED7100;strokeColor=none;dashed=0;verticalLabelPosition=bottom;verticalAlign=top;align=center;html=1;fontSize=12;fontStyle=0;aspect=fixed;pointerEvents=1;shape=mxgraph.aws4.lambda_function;" parent="1" vertex="1">
          <mxGeometry x="-240" y="590" width="48" height="48" as="geometry" />
        </mxCell>
        <mxCell id="46XRRnwRX2CXZSmb4EeM-1" value="" style="endArrow=classic;html=1;rounded=0;entryX=0.5;entryY=0;entryDx=0;entryDy=0;" edge="1" parent="1" target="piupa0PpMjbpXbgxNqik-4">
          <mxGeometry width="50" height="50" relative="1" as="geometry">
            <mxPoint x="-780" y="370" as="sourcePoint" />
            <mxPoint x="-780" y="570" as="targetPoint" />
          </mxGeometry>
        </mxCell>
        <mxCell id="piupa0PpMjbpXbgxNqik-4" value="APP" style="sketch=0;outlineConnect=0;fontColor=#232F3E;gradientColor=none;strokeColor=#232F3E;fillColor=#ffffff;dashed=0;verticalLabelPosition=bottom;verticalAlign=top;align=center;html=1;fontSize=12;fontStyle=0;aspect=fixed;shape=mxgraph.aws4.resourceIcon;resIcon=mxgraph.aws4.mobile_client;" parent="1" vertex="1">
          <mxGeometry x="-810" y="480" width="60" height="60" as="geometry" />
        </mxCell>
        <mxCell id="46XRRnwRX2CXZSmb4EeM-2" value="" style="endArrow=classic;html=1;rounded=0;" edge="1" parent="1" target="piupa0PpMjbpXbgxNqik-7">
          <mxGeometry width="50" height="50" relative="1" as="geometry">
            <mxPoint x="-720" y="360" as="sourcePoint" />
            <mxPoint x="-670" y="310" as="targetPoint" />
          </mxGeometry>
        </mxCell>
        <mxCell id="46XRRnwRX2CXZSmb4EeM-3" value="&lt;font style=&quot;font-size: 13px;&quot;&gt;user login request&lt;/font&gt;" style="edgeLabel;html=1;align=center;verticalAlign=middle;resizable=0;points=[];" vertex="1" connectable="0" parent="46XRRnwRX2CXZSmb4EeM-2">
          <mxGeometry x="-0.2297" y="1" relative="1" as="geometry">
            <mxPoint as="offset" />
          </mxGeometry>
        </mxCell>
        <mxCell id="46XRRnwRX2CXZSmb4EeM-4" value="" style="endArrow=classic;html=1;rounded=0;" edge="1" parent="1" target="piupa0PpMjbpXbgxNqik-23">
          <mxGeometry width="50" height="50" relative="1" as="geometry">
            <mxPoint x="-440" y="320" as="sourcePoint" />
            <mxPoint x="-390" y="270" as="targetPoint" />
            <Array as="points">
              <mxPoint x="-440" y="180" />
            </Array>
          </mxGeometry>
        </mxCell>
        <mxCell id="46XRRnwRX2CXZSmb4EeM-6" value="&lt;font style=&quot;font-size: 12px;&quot;&gt;Third Party&lt;/font&gt;" style="edgeLabel;html=1;align=center;verticalAlign=middle;resizable=0;points=[];" vertex="1" connectable="0" parent="46XRRnwRX2CXZSmb4EeM-4">
          <mxGeometry x="0.3659" y="4" relative="1" as="geometry">
            <mxPoint as="offset" />
          </mxGeometry>
        </mxCell>
        <mxCell id="46XRRnwRX2CXZSmb4EeM-5" value="" style="endArrow=classic;html=1;rounded=0;" edge="1" parent="1" target="iSwbIM2tqrzNAByZ9JPQ-2">
          <mxGeometry width="50" height="50" relative="1" as="geometry">
            <mxPoint x="-440" y="410" as="sourcePoint" />
            <mxPoint x="-390" y="360" as="targetPoint" />
            <Array as="points">
              <mxPoint x="-440" y="610" />
            </Array>
          </mxGeometry>
        </mxCell>
        <mxCell id="46XRRnwRX2CXZSmb4EeM-7" value="&lt;font style=&quot;font-size: 12px;&quot;&gt;Email / Password&lt;/font&gt;" style="edgeLabel;html=1;align=center;verticalAlign=middle;resizable=0;points=[];" vertex="1" connectable="0" parent="46XRRnwRX2CXZSmb4EeM-5">
          <mxGeometry x="0.2945" relative="1" as="geometry">
            <mxPoint as="offset" />
          </mxGeometry>
        </mxCell>
        <mxCell id="46XRRnwRX2CXZSmb4EeM-8" value="Login" style="html=1;whiteSpace=wrap;strokeColor=none;fillColor=#0079D6;labelPosition=center;verticalLabelPosition=middle;verticalAlign=top;align=center;fontSize=12;outlineConnect=0;spacingTop=-6;fontColor=#FFFFFF;sketch=0;shape=mxgraph.sitemap.login;" vertex="1" parent="1">
          <mxGeometry x="-80" y="149" width="120" height="70" as="geometry" />
        </mxCell>
        <mxCell id="46XRRnwRX2CXZSmb4EeM-9" value="" style="endArrow=classic;html=1;rounded=0;entryX=0;entryY=0.5;entryDx=0;entryDy=0;entryPerimeter=0;" edge="1" parent="1" target="46XRRnwRX2CXZSmb4EeM-8">
          <mxGeometry width="50" height="50" relative="1" as="geometry">
            <mxPoint x="-210" y="180" as="sourcePoint" />
            <mxPoint x="-160" y="130" as="targetPoint" />
          </mxGeometry>
        </mxCell>
        <mxCell id="46XRRnwRX2CXZSmb4EeM-10" value="&lt;font style=&quot;font-size: 13px;&quot;&gt;OAuth service&lt;/font&gt;" style="edgeLabel;html=1;align=center;verticalAlign=middle;resizable=0;points=[];" vertex="1" connectable="0" parent="46XRRnwRX2CXZSmb4EeM-9">
          <mxGeometry x="-0.183" relative="1" as="geometry">
            <mxPoint as="offset" />
          </mxGeometry>
        </mxCell>
        <mxCell id="46XRRnwRX2CXZSmb4EeM-14" value="Create Session or JWT Token" style="whiteSpace=wrap;html=1;aspect=fixed;" vertex="1" parent="1">
          <mxGeometry x="-80" y="510" width="80" height="80" as="geometry" />
        </mxCell>
        <mxCell id="46XRRnwRX2CXZSmb4EeM-22" value="" style="endArrow=classic;html=1;rounded=0;entryX=0.924;entryY=0.91;entryDx=0;entryDy=0;entryPerimeter=0;" edge="1" parent="1" target="piupa0PpMjbpXbgxNqik-23">
          <mxGeometry width="50" height="50" relative="1" as="geometry">
            <mxPoint x="-80" y="210" as="sourcePoint" />
            <mxPoint x="-30" y="160" as="targetPoint" />
          </mxGeometry>
        </mxCell>
        <mxCell id="46XRRnwRX2CXZSmb4EeM-23" value="&lt;font style=&quot;font-size: 12px;&quot;&gt;Access Token&lt;/font&gt;" style="edgeLabel;html=1;align=center;verticalAlign=middle;resizable=0;points=[];" vertex="1" connectable="0" parent="46XRRnwRX2CXZSmb4EeM-22">
          <mxGeometry x="-0.1654" relative="1" as="geometry">
            <mxPoint x="-1" as="offset" />
          </mxGeometry>
        </mxCell>
        <mxCell id="46XRRnwRX2CXZSmb4EeM-24" value="" style="endArrow=none;html=1;rounded=0;" edge="1" parent="1">
          <mxGeometry width="50" height="50" relative="1" as="geometry">
            <mxPoint x="-160" y="520" as="sourcePoint" />
            <mxPoint x="-160" y="360" as="targetPoint" />
          </mxGeometry>
        </mxCell>
        <mxCell id="46XRRnwRX2CXZSmb4EeM-25" value="" style="endArrow=classic;html=1;rounded=0;entryX=0.125;entryY=0.125;entryDx=0;entryDy=0;entryPerimeter=0;" edge="1" parent="1" target="46XRRnwRX2CXZSmb4EeM-14">
          <mxGeometry width="50" height="50" relative="1" as="geometry">
            <mxPoint x="-160" y="520" as="sourcePoint" />
            <mxPoint x="-110" y="470" as="targetPoint" />
          </mxGeometry>
        </mxCell>
        <mxCell id="46XRRnwRX2CXZSmb4EeM-26" value="" style="endArrow=classic;html=1;rounded=0;" edge="1" parent="1" target="36JCrnNfCk2gwNVFmTdE-1">
          <mxGeometry width="50" height="50" relative="1" as="geometry">
            <mxPoint x="-160" y="360" as="sourcePoint" />
            <mxPoint x="-110" y="310" as="targetPoint" />
          </mxGeometry>
        </mxCell>
        <mxCell id="46XRRnwRX2CXZSmb4EeM-27" value="" style="endArrow=classic;html=1;rounded=0;" edge="1" parent="1">
          <mxGeometry width="50" height="50" relative="1" as="geometry">
            <mxPoint x="-220" y="590" as="sourcePoint" />
            <mxPoint x="-160" y="440" as="targetPoint" />
            <Array as="points">
              <mxPoint x="-220" y="440" />
            </Array>
          </mxGeometry>
        </mxCell>
        <mxCell id="46XRRnwRX2CXZSmb4EeM-28" value="" style="endArrow=classic;html=1;rounded=0;exitX=0.625;exitY=1.042;exitDx=0;exitDy=0;exitPerimeter=0;" edge="1" parent="1" source="piupa0PpMjbpXbgxNqik-23">
          <mxGeometry width="50" height="50" relative="1" as="geometry">
            <mxPoint x="-230" y="210" as="sourcePoint" />
            <mxPoint x="-160" y="400" as="targetPoint" />
            <Array as="points">
              <mxPoint x="-220" y="400" />
            </Array>
          </mxGeometry>
        </mxCell>
      </root>
    </mxGraphModel>
  </diagram>
</mxfile>
